<?xml version="1.0" encoding="UTF-8" standalone="no"?><!DOCTYPE svg PUBLIC "-//W3C//DTD SVG 1.1//EN" "http://www.w3.org/Graphics/SVG/1.1/DTD/svg11.dtd"><svg width="100%" height="100%" viewBox="0 0 1947 333" version="1.1" xmlns="http://www.w3.org/2000/svg" xmlns:xlink="http://www.w3.org/1999/xlink" xml:space="preserve" xmlns:serif="http://www.serif.com/" style="fill-rule:evenodd;clip-rule:evenodd;stroke-miterlimit:2;"><rect id="Artboard1" x="0" y="0" width="1947" height="333" style="fill:none;"/><clipPath id="_clip1"><rect x="0" y="0" width="1947" height="333"/></clipPath><g clip-path="url(#_clip1)"><g><path d="M110.46,210.834l170.416,-0l-8.351,68.166l-238.582,0l29.312,-238.582l238.582,-0l-8.351,68.166l-170.415,0l-12.611,102.25Z" style="fill:url(#_Linear2);fill-rule:nonzero;stroke:#000;stroke-width:20px;"/><path d="M378.694,108.584l-12.61,102.25l102.249,-0l12.611,-102.25l-102.25,0Zm-59.816,-68.166l238.582,-0l-29.311,238.582l-238.582,0l29.311,-238.582Z" style="fill:url(#_Linear3);fill-rule:nonzero;stroke:#000;stroke-width:20px;"/><path d="M736.567,108.584l-170.415,0l8.35,-68.166l238.582,-0l-29.311,238.582l-238.582,0l18.916,-153.374l68.166,-0l-10.566,85.208l102.25,-0l12.61,-102.25Z" style="fill:url(#_Linear4);fill-rule:nonzero;stroke:#000;stroke-width:20px;"/><path d="M1068.71,40.418l-8.35,68.166l-170.416,0l-2.045,17.042l170.416,-0l-8.521,68.166l-170.416,0l-2.045,17.042l170.416,-0l-8.351,68.166l-238.582,0l29.312,-238.582l238.582,-0Z" style="fill:url(#_Linear5);fill-rule:nonzero;stroke:#000;stroke-width:20px;"/></g><g><path d="M1085.02,40.418l238.583,-0l-29.312,238.582l-51.125,-0l29.823,34.083l-96.455,0l-29.823,-34.083l-91.002,-0l29.311,-238.582Zm59.816,68.166l-12.61,102.25l102.249,-0l12.611,-102.25l-102.25,0Z" style="fill:url(#_Linear6);fill-rule:nonzero;stroke:#000;stroke-width:20px;"/><path d="M1340.64,40.418l68.166,-0l-20.961,170.416l102.25,-0l20.961,-170.416l68.166,-0l-29.311,238.582l-238.582,-0l29.311,-238.582Z" style="fill:url(#_Linear7);fill-rule:nonzero;stroke:#000;stroke-width:20px;"/><path d="M1635.12,279l-68.167,-0l29.312,-238.582l68.166,-0l-29.311,238.582Z" style="fill:url(#_Linear8);fill-rule:nonzero;stroke:#000;stroke-width:20px;"/><path d="M1795.31,108.584l-122.189,0l8.351,-68.166l238.582,-0l-5.965,48.228l-137.184,122.188l122.188,-0l-8.351,68.166l-238.582,-0l5.965,-48.228l137.185,-122.188Z" style="fill:url(#_Linear9);fill-rule:nonzero;stroke:#000;stroke-width:20px;"/></g></g><defs><linearGradient id="_Linear2" x1="0" y1="0" x2="1" y2="0" gradientUnits="userSpaceOnUse" gradientTransform="matrix(-7,238.582,-238.582,-7,506.907,40.4179)"><stop offset="0" style="stop-color:#ff7f2c;stop-opacity:1"/><stop offset="1" style="stop-color:#bc5a00;stop-opacity:1"/></linearGradient><linearGradient id="_Linear3" x1="0" y1="0" x2="1" y2="0" gradientUnits="userSpaceOnUse" gradientTransform="matrix(-7,238.582,-238.582,-7,506.907,40.4179)"><stop offset="0" style="stop-color:#ff7f2c;stop-opacity:1"/><stop offset="1" style="stop-color:#bc5a00;stop-opacity:1"/></linearGradient><linearGradient id="_Linear4" x1="0" y1="0" x2="1" y2="0" gradientUnits="userSpaceOnUse" gradientTransform="matrix(-7,238.582,-238.582,-7,506.907,40.4179)"><stop offset="0" style="stop-color:#ff7f2c;stop-opacity:1"/><stop offset="1" style="stop-color:#bc5a00;stop-opacity:1"/></linearGradient><linearGradient id="_Linear5" x1="0" y1="0" x2="1" y2="0" gradientUnits="userSpaceOnUse" gradientTransform="matrix(-7,238.582,-238.582,-7,506.907,40.4179)"><stop offset="0" style="stop-color:#ff7f2c;stop-opacity:1"/><stop offset="1" style="stop-color:#bc5a00;stop-opacity:1"/></linearGradient><linearGradient id="_Linear6" x1="0" y1="0" x2="1" y2="0" gradientUnits="userSpaceOnUse" gradientTransform="matrix(-6.13497,238.582,-238.582,-6.13497,1573.09,40.4179)"><stop offset="0" style="stop-color:#2c5aff;stop-opacity:1"/><stop offset="1" style="stop-color:#0029bc;stop-opacity:1"/></linearGradient><linearGradient id="_Linear7" x1="0" y1="0" x2="1" y2="0" gradientUnits="userSpaceOnUse" gradientTransform="matrix(-6.13497,238.582,-238.582,-6.13497,1573.09,40.4179)"><stop offset="0" style="stop-color:#2c5aff;stop-opacity:1"/><stop offset="1" style="stop-color:#0029bc;stop-opacity:1"/></linearGradient><linearGradient id="_Linear8" x1="0" y1="0" x2="1" y2="0" gradientUnits="userSpaceOnUse" gradientTransform="matrix(-6.13497,238.582,-238.582,-6.13497,1573.09,40.4179)"><stop offset="0" style="stop-color:#2c5aff;stop-opacity:1"/><stop offset="1" style="stop-color:#0029bc;stop-opacity:1"/></linearGradient><linearGradient id="_Linear9" x1="0" y1="0" x2="1" y2="0" gradientUnits="userSpaceOnUse" gradientTransform="matrix(-6.13497,238.582,-238.582,-6.13497,1573.09,40.4179)"><stop offset="0" style="stop-color:#2c5aff;stop-opacity:1"/><stop offset="1" style="stop-color:#0029bc;stop-opacity:1"/></linearGradient></defs></svg>